name Walk8.mot
datacolumns 19
datarows 30
range 1.84500000 1.87400000
endheader

                time	   L_ground_force_vx	   L_ground_force_vy	   L_ground_force_vz	   L_ground_force_px	   L_ground_force_py	   L_ground_force_pz	   R_ground_force_vx	   R_ground_force_vy	   R_ground_force_vz	   R_ground_force_px	   R_ground_force_py	   R_ground_force_pz	   L_ground_torque_x	   L_ground_torque_y	   L_ground_torque_z	   R_ground_torque_x	   R_ground_torque_y	   R_ground_torque_z	
          1.84500000	        -27.93616556	        534.98675297	        -42.78339112	          0.26813923	          0.00000000	          0.09311210	          0.00000000	          0.00000000	          0.00000000	          0.00000000	          0.00000000	          0.00000000	          0.00000000	         -0.59315647	          0.00000000	          0.00000000	          0.00000000	          0.00000000	
          1.84600000	        -27.51761247	        533.43612767	        -42.73645734	          0.26866278	          0.00000000	          0.09324203	          0.00000000	          0.00000000	          0.00000000	          0.00000000	          0.00000000	          0.00000000	          0.00000000	         -0.59701457	          0.00000000	          0.00000000	          0.00000000	          0.00000000	
          1.84700000	        -27.10079950	        531.79201893	        -42.66850213	          0.26910573	          0.00000000	          0.09335049	          0.00000000	          0.00000000	          0.00000000	          0.00000000	          0.00000000	          0.00000000	          0.00000000	         -0.59171013	          0.00000000	          0.00000000	          0.00000000	          0.00000000	
          1.84800000	        -26.68606711	        530.12017894	        -42.58634256	          0.26950095	          0.00000000	          0.09343475	          0.00000000	          0.00000000	          0.00000000	          0.00000000	          0.00000000	          0.00000000	          0.00000000	         -0.58119990	          0.00000000	          0.00000000	          0.00000000	          0.00000000	
          1.84900000	        -26.27730458	        528.49153809	        -42.50271790	          0.26989608	          0.00000000	          0.09350695	          0.00000000	          0.00000000	          0.00000000	          0.00000000	          0.00000000	          0.00000000	          0.00000000	         -0.56855736	          0.00000000	          0.00000000	          0.00000000	          0.00000000	
          1.85000000	        -25.88345135	        526.94313207	        -42.43000337	          0.27032469	          0.00000000	          0.09358343	          0.00000000	          0.00000000	          0.00000000	          0.00000000	          0.00000000	          0.00000000	          0.00000000	         -0.55716144	          0.00000000	          0.00000000	          0.00000000	          0.00000000	
          1.85100000	        -25.51758605	        525.49278658	        -42.37467117	          0.27079477	          0.00000000	          0.09367885	          0.00000000	          0.00000000	          0.00000000	          0.00000000	          0.00000000	          0.00000000	          0.00000000	         -0.55296507	          0.00000000	          0.00000000	          0.00000000	          0.00000000	
          1.85200000	        -25.18296594	        524.14569973	        -42.33171893	          0.27129644	          0.00000000	          0.09380015	          0.00000000	          0.00000000	          0.00000000	          0.00000000	          0.00000000	          0.00000000	          0.00000000	         -0.56125082	          0.00000000	          0.00000000	          0.00000000	          0.00000000	
          1.85300000	        -24.86230924	        522.87874214	        -42.28755664	          0.27182584	          0.00000000	          0.09393844	          0.00000000	          0.00000000	          0.00000000	          0.00000000	          0.00000000	          0.00000000	          0.00000000	         -0.57913796	          0.00000000	          0.00000000	          0.00000000	          0.00000000	
          1.85400000	        -24.53034395	        521.63344820	        -42.23152252	          0.27237702	          0.00000000	          0.09406720	          0.00000000	          0.00000000	          0.00000000	          0.00000000	          0.00000000	          0.00000000	          0.00000000	         -0.59688764	          0.00000000	          0.00000000	          0.00000000	          0.00000000	
          1.85500000	        -24.17556791	        520.34156579	        -42.16278368	          0.27291524	          0.00000000	          0.09416028	          0.00000000	          0.00000000	          0.00000000	          0.00000000	          0.00000000	          0.00000000	          0.00000000	         -0.60741187	          0.00000000	          0.00000000	          0.00000000	          0.00000000	
          1.85600000	        -23.80587805	        518.96943277	        -42.08475228	          0.27340308	          0.00000000	          0.09421705	          0.00000000	          0.00000000	          0.00000000	          0.00000000	          0.00000000	          0.00000000	          0.00000000	         -0.61079697	          0.00000000	          0.00000000	          0.00000000	          0.00000000	
          1.85700000	        -23.43685895	        517.54311952	        -41.99816864	          0.27384062	          0.00000000	          0.09425656	          0.00000000	          0.00000000	          0.00000000	          0.00000000	          0.00000000	          0.00000000	          0.00000000	         -0.61017316	          0.00000000	          0.00000000	          0.00000000	          0.00000000	
          1.85800000	        -23.08110967	        516.14062839	        -41.90428586	          0.27425675	          0.00000000	          0.09429754	          0.00000000	          0.00000000	          0.00000000	          0.00000000	          0.00000000	          0.00000000	          0.00000000	         -0.60600950	          0.00000000	          0.00000000	          0.00000000	          0.00000000	
          1.85900000	        -22.74502827	        514.85508036	        -41.80494701	          0.27468969	          0.00000000	          0.09436403	          0.00000000	          0.00000000	          0.00000000	          0.00000000	          0.00000000	          0.00000000	          0.00000000	         -0.59719200	          0.00000000	          0.00000000	          0.00000000	          0.00000000	
          1.86000000	        -22.42700219	        513.74888161	        -41.69384250	          0.27518944	          0.00000000	          0.09448770	          0.00000000	          0.00000000	          0.00000000	          0.00000000	          0.00000000	          0.00000000	          0.00000000	         -0.58707002	          0.00000000	          0.00000000	          0.00000000	          0.00000000	
          1.86100000	        -22.11877804	        512.83180514	        -41.55858966	          0.27579958	          0.00000000	          0.09468674	          0.00000000	          0.00000000	          0.00000000	          0.00000000	          0.00000000	          0.00000000	          0.00000000	         -0.58248492	          0.00000000	          0.00000000	          0.00000000	          0.00000000	
          1.86200000	        -21.80971725	        512.05216891	        -41.39547788	          0.27650321	          0.00000000	          0.09494735	          0.00000000	          0.00000000	          0.00000000	          0.00000000	          0.00000000	          0.00000000	          0.00000000	         -0.58529573	          0.00000000	          0.00000000	          0.00000000	          0.00000000	
          1.86300000	        -21.48907618	        511.29755244	        -41.21536776	          0.27721362	          0.00000000	          0.09521928	          0.00000000	          0.00000000	          0.00000000	          0.00000000	          0.00000000	          0.00000000	          0.00000000	         -0.59084486	          0.00000000	          0.00000000	          0.00000000	          0.00000000	
          1.86400000	        -21.15072846	        510.45419366	        -41.03493648	          0.27784625	          0.00000000	          0.09544117	          0.00000000	          0.00000000	          0.00000000	          0.00000000	          0.00000000	          0.00000000	          0.00000000	         -0.59605329	          0.00000000	          0.00000000	          0.00000000	          0.00000000	
          1.86500000	        -20.79952234	        509.49084885	        -40.86720869	          0.27837468	          0.00000000	          0.09558282	          0.00000000	          0.00000000	          0.00000000	          0.00000000	          0.00000000	          0.00000000	          0.00000000	         -0.60385274	          0.00000000	          0.00000000	          0.00000000	          0.00000000	
          1.86600000	        -20.44790981	        508.46213239	        -40.71932189	          0.27881764	          0.00000000	          0.09565555	          0.00000000	          0.00000000	          0.00000000	          0.00000000	          0.00000000	          0.00000000	          0.00000000	         -0.61764864	          0.00000000	          0.00000000	          0.00000000	          0.00000000	
          1.86700000	        -20.10503197	        507.44004175	        -40.59085582	          0.27921899	          0.00000000	          0.09569883	          0.00000000	          0.00000000	          0.00000000	          0.00000000	          0.00000000	          0.00000000	          0.00000000	         -0.63490356	          0.00000000	          0.00000000	          0.00000000	          0.00000000	
          1.86800000	        -19.77256686	        506.46506913	        -40.47344269	          0.27963965	          0.00000000	          0.09576185	          0.00000000	          0.00000000	          0.00000000	          0.00000000	          0.00000000	          0.00000000	          0.00000000	         -0.64958174	          0.00000000	          0.00000000	          0.00000000	          0.00000000	
          1.86900000	        -19.44929290	        505.54424280	        -40.35953627	          0.28012298	          0.00000000	          0.09587175	          0.00000000	          0.00000000	          0.00000000	          0.00000000	          0.00000000	          0.00000000	          0.00000000	         -0.65837775	          0.00000000	          0.00000000	          0.00000000	          0.00000000	
          1.87000000	        -19.13361446	        504.65862341	        -40.24870220	          0.28065187	          0.00000000	          0.09601431	          0.00000000	          0.00000000	          0.00000000	          0.00000000	          0.00000000	          0.00000000	          0.00000000	         -0.66075090	          0.00000000	          0.00000000	          0.00000000	          0.00000000	
          1.87100000	        -18.82130019	        503.76876703	        -40.14123672	          0.28114911	          0.00000000	          0.09614870	          0.00000000	          0.00000000	          0.00000000	          0.00000000	          0.00000000	          0.00000000	          0.00000000	         -0.65517168	          0.00000000	          0.00000000	          0.00000000	          0.00000000	
          1.87200000	        -18.50805580	        502.84105842	        -40.03163602	          0.28153007	          0.00000000	          0.09623397	          0.00000000	          0.00000000	          0.00000000	          0.00000000	          0.00000000	          0.00000000	          0.00000000	         -0.63996157	          0.00000000	          0.00000000	          0.00000000	          0.00000000	
          1.87300000	        -18.19653670	        501.88124997	        -39.91112392	          0.28177381	          0.00000000	          0.09624753	          0.00000000	          0.00000000	          0.00000000	          0.00000000	          0.00000000	          0.00000000	          0.00000000	         -0.61821700	          0.00000000	          0.00000000	          0.00000000	          0.00000000	
          1.87400000	        -17.89331376	        500.93198910	        -39.77587199	          0.28194485	          0.00000000	          0.09619942	          0.00000000	          0.00000000	          0.00000000	          0.00000000	          0.00000000	          0.00000000	          0.00000000	         -0.59744493	          0.00000000	          0.00000000	          0.00000000	          0.00000000	
